<svg xmlns="http://www.w3.org/2000/svg" xmlns:xlink="http://www.w3.org/1999/xlink" width="512" height="512" viewBox="0 0 512 512">
  <defs>
    <clipPath id="clip-Artboard_1">
      <rect width="512" height="512"/>
    </clipPath>
  </defs>
  <g id="Artboard_1" data-name="Artboard – 1" clip-path="url(#clip-Artboard_1)">
    <path fill="#fff" id="Subtraction_2" data-name="Subtraction 2" d="M176.5,429.5a257.892,257.892,0,0,1-51.593-5.2,254.6,254.6,0,0,1-91.539-38.52,256.747,256.747,0,0,1-92.75-112.632A254.712,254.712,0,0,1-74.3,225.1a258.5,258.5,0,0,1,0-103.186,254.6,254.6,0,0,1,38.52-91.54A256.75,256.75,0,0,1,76.854-62.382,254.709,254.709,0,0,1,124.907-77.3a258.492,258.492,0,0,1,103.186,0,254.6,254.6,0,0,1,91.539,38.521,256.752,256.752,0,0,1,92.75,112.634A254.716,254.716,0,0,1,427.3,121.91a258.5,258.5,0,0,1,0,103.186,254.6,254.6,0,0,1-38.52,91.539,256.747,256.747,0,0,1-112.632,92.75A254.713,254.713,0,0,1,228.093,424.3,257.892,257.892,0,0,1,176.5,429.5ZM73.455,276.545H279.546v25.761A25.789,25.789,0,0,0,305.3,328.068h25.761a25.791,25.791,0,0,0,25.761-25.761V258.78a52.465,52.465,0,0,0,9.412-15.4,50.042,50.042,0,0,0,3.47-18.352V186.382a50.831,50.831,0,0,0-9.36-29.5,51.684,51.684,0,0,0-23.923-18.533l-9.048-22.62L311.336,75.61A89.735,89.735,0,0,0,227.62,18.934H125.38A89.735,89.735,0,0,0,41.665,75.61L25.621,115.726l-9.048,22.62A51.682,51.682,0,0,0-7.349,156.879a50.831,50.831,0,0,0-9.36,29.5v38.641a50.025,50.025,0,0,0,3.47,18.346A52.557,52.557,0,0,0-3.827,258.78v43.527a25.791,25.791,0,0,0,25.761,25.761H47.7a25.789,25.789,0,0,0,25.759-25.761V276.545Zm219.3-51.522h0c-5.617,0-12.732-.246-17.934-2.167-5.485-2.025-8.152-5.569-8.152-10.835,0-3.654,1.336-7.982,3.864-12.518a61.158,61.158,0,0,1,22.219-22.149c4.55-2.52,8.893-3.852,12.558-3.852,7.585,0,14.043,2.442,18.678,7.062s7.084,11.058,7.084,18.619-2.45,14-7.084,18.618-11.093,7.063-18.678,7.063c-1.878,0-3.836.037-5.909.077C297.227,224.981,294.987,225.024,292.751,225.024Zm-232.5,0h0c-2.24,0-4.479-.043-6.645-.084-2.074-.039-4.033-.077-5.912-.077-7.584,0-14.043-2.442-18.678-7.063s-7.084-11.058-7.084-18.618,2.45-14,7.084-18.619S40.111,173.5,47.7,173.5c3.665,0,8.008,1.332,12.558,3.852a58.1,58.1,0,0,1,12.558,9.63,57.96,57.96,0,0,1,9.66,12.519c2.528,4.536,3.864,8.865,3.864,12.518,0,5.266-2.666,8.81-8.151,10.835C72.984,224.777,65.87,225.024,60.253,225.024Zm219.293-90.165H73.455L89.5,94.746A38.644,38.644,0,0,1,125.38,70.457H227.62A38.644,38.644,0,0,1,263.5,94.746l16.045,40.108,0,0h0Z" transform="translate(79.5 82.5)"/>
  </g>
</svg>
